#!OML:ASF X:\für Bonn\!DataBase\2005_08_12_Daniel\c3d\Daniel.ASF
:FULLY-SPECIFIED
:DEGREES
48
root 3.65791 16.8766 -2.32586 -174.398 -68.7996 126.915
lowerback 50.2066 0.138928 6.04249
upperback 10.7943 -1.15667 -10.9565
thorax -9.19713 -1.32507 -14.4816
lowerneck 4.31348 8.18 -14.1875
upperneck 22.7164 9.99336 0.692429
head 5.57113 3.24246 2.75806
rclavicle 2.05742e-014 -4.6118e-014
rhumerus -37.6762 16.4423 -89.0044
rradius 41.2968
rwrist 23.6356
rhand -18.3923 24.2374
rfingers 7.12502
rthumb 7.89175 -5.59525
lclavicle 2.05742e-014 -4.6118e-014
lhumerus -12.5407 -28.1363 59.5197
lradius 125.868
lwrist 27.5105
lhand -17.8442 -24.7822
lfingers 7.12502
lthumb 8.4207 5.02993
rfemur 32.4285 9.30849 7.95522
rtibia 31.6652
rfoot -21.7392 -6.40917
rtoes -13.1638
lfemur -86.1696 24.5288 -16.7533
ltibia 113.911
lfoot 45.7028 -9.76112
ltoes -21.2
49
root 3.65384 16.8729 -2.34723 -174.507 -68.752 126.449
lowerback 51.0831 0.344555 5.67596
upperback 10.8483 -1.15448 -10.9368
thorax -9.25497 -1.34336 -14.2719
lowerneck 4.4601 8.44406 -14.2638
upperneck 23.7983 10.2259 1.10617
head 5.85015 3.27791 2.92409
rclavicle -1.66979e-014 2.38542e-014
rhumerus -37.3326 15.1255 -88.4748
rradius 41.5684
rwrist 23.1012
rhand -18.4447 23.9806
rfingers 7.12502
rthumb 7.84117 -5.85397
lclavicle -1.66979e-014 2.38542e-014
lhumerus -11.635 -28.212 58.7036
lradius 125.856
lwrist 27.5614
lhand -17.0826 -24.5659
lfingers 7.12502
lthumb 9.15562 5.21537
rfemur 33.1433 9.25673 7.75974
rtibia 31.3497
rfoot -21.5903 -6.28703
rtoes -13.2466
lfemur -86.9428 23.3438 -16.3542
ltibia 109.535
lfoot 44.2166 -8.12976
ltoes -23.3702
50
root 3.64344 16.8669 -2.3697 -174.503 -68.7099 125.953
lowerback 51.8197 0.555966 5.29777
upperback 10.9248 -1.15807 -10.9218
thorax -9.26272 -1.36227 -14.0606
lowerneck 4.51913 8.71616 -14.2965
upperneck 24.8905 10.4777 1.54327
head 6.14638 3.32849 3.09737
rclavicle 1.77912e-014 1.66979e-014
rhumerus -37.0222 13.2959 -87.8918
rradius 41.8172
rwrist 22.6605
rhand -18.589 23.8894
rfingers 7.12502
rthumb 7.70186 -5.95031
lclavicle 1.77912e-014 1.66979e-014
lhumerus -10.9356 -28.1547 58.1373
lradius 125.928
lwrist 27.4694
lhand -16.2988 -24.3013
lfingers 7.12502
lthumb 9.91193 5.44536
rfemur 33.7585 9.21496 7.56104
rtibia 31.112
rfoot -21.4899 -6.19433
rtoes -13.2858
lfemur -87.2641 22.2173 -15.8133
ltibia 104.731
lfoot 42.5951 -6.55523
ltoes -23.5272
51
root 3.62409 16.8556 -2.39449 -174.321 -68.7649 125.431
lowerback 52.3155 0.738132 4.93293
upperback 11.0394 -1.18335 -10.8976
thorax -9.19644 -1.38654 -13.8344
lowerneck 4.62875 8.96935 -14.2285
upperneck 25.8237 10.706 1.87906
head 6.39691 3.38317 3.21783
rclavicle -6.25178e-014 5.88403e-014
rhumerus -36.7801 11.3168 -87.3524
rradius 42.0115
rwrist 22.1201
rhand -18.9215 23.8571
rfingers 7.12502
rthumb 7.38093 -5.99413
lclavicle -6.25178e-014 5.88403e-014
lhumerus -10.4446 -28.0075 57.8165
lradius 126.054
lwrist 27.1696
lhand -15.6487 -24.0187
lfingers 7.12502
lthumb 10.5391 5.69706
rfemur 34.2866 9.12151 7.41795
rtibia 30.9065
rfoot -21.4877 -6.16963
rtoes -13.3842
lfemur -87.1184 21.0432 -15.185
ltibia 99.3785
lfoot 40.8086 -4.87621
ltoes -21.1597
52
root 3.59568 16.8367 -2.42377 -174.027 -68.8685 124.889
lowerback 52.6635 0.934346 4.53017
upperback 11.1904 -1.20997 -10.8615
thorax -9.06743 -1.41013 -13.5739
lowerneck 4.8266 9.19701 -14.1397
upperneck 26.4874 10.8953 2.1355
head 6.55508 3.43897 3.29775
rclavicle -4.69132e-014 9.22361e-014
rhumerus -36.6415 9.4024 -86.9385
rradius 42.2219
rwrist 21.206
rhand -19.4883 23.6226
rfingers 7.12502
rthumb 6.83379 -6.24706
lclavicle -4.69132e-014 9.22361e-014
lhumerus -10.1897 -27.8082 57.6864
lradius 126.254
lwrist 26.6262
lhand -15.2205 -23.8683
lfingers 7.12502
lthumb 10.9521 5.826
rfemur 34.8255 8.99826 7.30572
rtibia 30.611
rfoot -21.4805 -6.20236
rtoes -13.3515
lfemur -86.4285 19.932 -14.4725
ltibia 93.5003
lfoot 38.3383 -3.04308
ltoes -19.0276
53
root 3.57928 16.8388 -2.45826 -173.776 -69.019 124.483
lowerback 52.8735 1.11215 4.1356
upperback 11.4014 -1.25095 -10.801
thorax -8.85314 -1.43963 -13.2807
lowerneck 4.90029 9.38729 -14.0876
upperneck 27.0907 11.0707 2.33915
head 6.71787 3.4875 3.37134
rclavicle 5.26779e-015 -2.8625e-014
rhumerus -36.5352 7.83821 -86.6702
rradius 42.5205
rwrist 19.6711
rhand -20.1966 22.9102
rfingers 7.12502
rthumb 6.15003 -6.98055
lclavicle 5.26779e-015 -2.8625e-014
lhumerus -10.2357 -27.4765 57.8325
lradius 126.554
lwrist 25.7996
lhand -14.9661 -23.8605
lfingers 7.12502
lthumb 11.1975 5.82073
rfemur 35.3506 8.82414 7.29608
rtibia 30.1566
rfoot -21.3796 -6.2996
rtoes -13.3855
lfemur -85.3296 18.9112 -13.6424
ltibia 87.2414
lfoot 34.9161 -1.32182
ltoes -19.5993
54
root 3.57948 16.863 -2.49797 -173.68 -69.2163 124.362
lowerback 52.929 1.25539 3.8143
upperback 11.6874 -1.29081 -10.7319
thorax -8.53436 -1.46676 -13.0128
lowerneck 4.70406 9.52054 -14.0163
upperneck 27.687 11.2356 2.52595
head 6.92531 3.53692 3.45169
rclavicle 4.32357e-014 -9.14409e-014
rhumerus -36.3756 6.46747 -86.5405
rradius 42.9084
rwrist 17.5376
rhand -20.8361 21.936
rfingers 7.12502
rthumb 5.53264 -7.97174
lclavicle 4.32357e-014 -9.14409e-014
lhumerus -10.2537 -26.9813 58.0248
lradius 126.839
lwrist 24.9996
lhand -15.0189 -23.9152
lfingers 7.12502
lthumb 11.1465 5.76874
rfemur 35.8406 8.57061 7.42744
rtibia 29.492
rfoot -21.1329 -6.43679
rtoes -13.2881
lfemur -83.9037 17.9628 -12.6445
ltibia 80.5974
lfoot 30.6608 0.242847
ltoes -21.7521
55
root 3.58672 16.887 -2.53873 -173.761 -69.4539 124.519
lowerback 52.8989 1.35614 3.54606
upperback 11.9932 -1.34541 -10.6456
thorax -8.18532 -1.50141 -12.7448
lowerneck 4.37174 9.63867 -13.9183
upperneck 28.2503 11.4231 2.65041
head 7.14961 3.5995 3.51575
rclavicle -4.52235e-014 4.92986e-014
rhumerus -36.2191 5.30275 -86.5764
rradius 43.302
rwrist 14.861
rhand -21.6466 21.0648
rfingers 7.12502
rthumb 4.75003 -8.862
lclavicle -4.52235e-014 4.92986e-014
lhumerus -10.3549 -26.3208 58.3699
lradius 127.104
lwrist 24.2174
lhand -15.2921 -24.0349
lfingers 7.12502
lthumb 10.883 5.66312
rfemur 36.3474 8.28559 7.70136
rtibia 28.5955
rfoot -20.7618 -6.62432
rtoes -13.1793
lfemur -82.1692 17.0672 -11.4938
ltibia 73.6953
lfoot 25.5033 1.83096
ltoes -23.1029
56
root 3.60842 16.9159 -2.58092 -173.972 -69.7125 124.869
lowerback 52.8429 1.43898 3.30943
upperback 12.2853 -1.39623 -10.5379
thorax -7.84636 -1.53575 -12.4718
lowerneck 4.07176 9.76479 -13.8259
upperneck 28.7341 11.6166 2.7662
head 7.34305 3.67074 3.57469
rclavicle 5.89397e-014 -3.02153e-014
rhumerus -36.1503 4.44062 -86.7925
rradius 43.6986
rwrist 11.3843
rhand -22.5979 20.63
rfingers 7.12502
rthumb 3.8314 -9.31533
lclavicle 5.89397e-014 -3.02153e-014
lhumerus -10.6357 -25.5719 58.89
lradius 127.451
lwrist 23.5283
lhand -15.6917 -24.1901
lfingers 7.12502
lthumb 10.4975 5.52783
rfemur 36.8114 7.93781 8.03636
rtibia 27.5687
rfoot -20.2616 -6.81045
rtoes -13.0424
lfemur -80.1863 16.2296 -10.2331
ltibia 66.784
lfoot 19.1855 3.58883
ltoes -21.9039
57
root 3.64319 16.9482 -2.62297 -174.413 -69.9343 125.474
lowerback 52.898 1.50676 3.11982
upperback 12.4621 -1.43655 -10.4365
thorax -7.64866 -1.56694 -12.2389
lowerneck 4.00074 9.93572 -13.7386
upperneck 29.0875 11.8129 2.91372
head 7.45183 3.75446 3.6277
rclavicle 6.10269e-014 -9.54166e-015
rhumerus -36.3121 3.67578 -87.1289
rradius 44.012
rwrist 7.66036
rhand -23.6652 20.7604
rfingers 7.12502
rthumb 2.80066 -9.20096
lclavicle 6.10269e-014 -9.54166e-015
lhumerus -11.2314 -24.8218 59.6024
lradius 127.886
lwrist 22.8991
lhand -16.1693 -24.4054
lfingers 7.12502
lthumb 10.0368 5.33523
rfemur 37.1873 7.58062 8.41651
rtibia 26.5399
rfoot -19.6988 -6.93306
rtoes -12.7968
lfemur -77.9216 15.472 -8.87258
ltibia 60.0034
lfoot 12.3683 5.60021
ltoes -23.0647
58
root 3.67946 16.9765 -2.6624 -175.105 -70.0739 126.311
lowerback 53.0629 1.5923 2.9414
upperback 12.5691 -1.45184 -10.3212
thorax -7.53463 -1.58952 -12.01
lowerneck 4.03012 10.1309 -13.6429
upperneck 29.3818 12.0286 3.01158
head 7.52767 3.84738 3.65588
rclavicle 2.10712e-014 1.19271e-014
rhumerus -36.5875 3.09351 -87.5084
rradius 44.242
rwrist 4.07028
rhand -24.9372 21.1476
rfingers 7.12502
rthumb 1.57224 -8.82636
lclavicle 2.10712e-014 1.19271e-014
lhumerus -12.0242 -24.04 60.4808
lradius 128.341
lwrist 22.2933
lhand -16.7199 -24.7369
lfingers 7.12502
lthumb 9.50558 5.02868
rfemur 37.5371 7.2779 8.83537
rtibia 25.5321
rfoot -19.1176 -7.04321
rtoes -12.7378
lfemur -75.4271 14.7728 -7.37006
ltibia 53.4743
lfoot 5.72871 7.9066
ltoes -24.8351
59
root 3.71778 17.0033 -2.6983 -175.977 -70.1443 127.319
lowerback 53.272 1.66515 2.82366
upperback 12.6523 -1.45751 -10.2307
thorax -7.45293 -1.6072 -11.8454
lowerneck 4.11931 10.3349 -13.5581
upperneck 29.6037 12.2429 3.11663
head 7.56783 3.94513 3.68174
rclavicle -5.96354e-016 2.54444e-014
rhumerus -36.9318 2.4827 -87.8888
rradius 44.398
rwrist 1.02674
rhand -26.1826 21.7328
rfingers 7.12502
rthumb 0.369395 -8.24662
lclavicle -5.96354e-016 2.54444e-014
lhumerus -12.9254 -23.2141 61.4476
lradius 128.83
lwrist 21.702
lhand -17.1784 -25.0887
lfingers 7.12502
lthumb 9.06324 4.69658
rfemur 37.8353 7.05893 9.3045
rtibia 24.5939
rfoot -18.5406 -7.12762
rtoes -12.4947
lfemur -72.9192 14.0478 -5.6679
ltibia 47.3738
lfoot -0.850935 10.5693
ltoes -26.9747
60
root 3.7556 17.0267 -2.7283 -176.956 -70.158 128.424
lowerback 53.4543 1.69755 2.78117
upperback 12.7794 -1.48655 -10.1959
thorax -7.32927 -1.63426 -11.7709
lowerneck 4.09746 10.5294 -13.4603
upperneck 29.8413 12.4694 3.2195
head 7.63154 4.0499 3.71236
rclavicle -4.41302e-014 7.63333e-014
rhumerus -37.2267 1.90261 -88.3154
rradius 44.4675
rwrist -1.52654
rhand -27.2256 22.1164
rfingers 7.12502
rthumb -0.637991 -7.86238
lclavicle -4.41302e-014 7.63333e-014
lhumerus -13.7759 -22.2515 62.4218
lradius 129.274
lwrist 21.2727
lhand -17.7648 -25.5685
lfingers 7.12502
lthumb 8.49735 4.2405
rfemur 38.0421 6.86148 9.73847
rtibia 23.7972
rfoot -18.003 -7.14512
rtoes -12.416
lfemur -70.532 13.2474 -3.76513
ltibia 41.9247
lfoot -6.31916 13.4713
ltoes -30.9019
